<mxfile host="app.diagrams.net" modified="2023-03-08T01:52:25.523Z" agent="5.0 (Macintosh; Intel Mac OS X 10_15_7) AppleWebKit/537.36 (KHTML, like Gecko) Chrome/110.0.0.0 Safari/537.36" etag="bZx609DKEEyI2tg5jnGu" version="21.0.2" type="github">
  <diagram id="1qVJCfuYaMeoUfc-0dYW" name="Page-1">
    <mxGraphModel dx="1434" dy="828" grid="1" gridSize="10" guides="1" tooltips="1" connect="1" arrows="1" fold="1" page="1" pageScale="1" pageWidth="827" pageHeight="1169" math="0" shadow="0">
      <root>
        <mxCell id="0" />
        <mxCell id="1" parent="0" />
        <mxCell id="QOcSFR8y_e22kkafj4sU-1" value="&lt;b&gt;Bifrost&lt;/b&gt;" style="ellipse;whiteSpace=wrap;html=1;aspect=fixed;" parent="1" vertex="1">
          <mxGeometry x="120" y="250" width="170" height="170" as="geometry" />
        </mxCell>
        <mxCell id="QOcSFR8y_e22kkafj4sU-2" value="&lt;b&gt;Filecoin&lt;/b&gt;" style="ellipse;whiteSpace=wrap;html=1;aspect=fixed;" parent="1" vertex="1">
          <mxGeometry x="550" y="250" width="170" height="170" as="geometry" />
        </mxCell>
        <mxCell id="QOcSFR8y_e22kkafj4sU-6" value="user" style="shape=hexagon;perimeter=hexagonPerimeter2;whiteSpace=wrap;html=1;fixedSize=1;" parent="1" vertex="1">
          <mxGeometry x="260" y="310" width="60" height="30" as="geometry" />
        </mxCell>
        <mxCell id="QOcSFR8y_e22kkafj4sU-7" value="user" style="shape=hexagon;perimeter=hexagonPerimeter2;whiteSpace=wrap;html=1;fixedSize=1;" parent="1" vertex="1">
          <mxGeometry x="520" y="310" width="60" height="30" as="geometry" />
        </mxCell>
        <mxCell id="QOcSFR8y_e22kkafj4sU-8" value="" style="endArrow=none;dashed=1;html=1;dashPattern=1 3;strokeWidth=2;rounded=0;exitX=1;exitY=0.5;exitDx=0;exitDy=0;entryX=0;entryY=0.5;entryDx=0;entryDy=0;" parent="1" source="QOcSFR8y_e22kkafj4sU-6" target="QOcSFR8y_e22kkafj4sU-7" edge="1">
          <mxGeometry width="50" height="50" relative="1" as="geometry">
            <mxPoint x="360" y="390" as="sourcePoint" />
            <mxPoint x="410" y="340" as="targetPoint" />
          </mxGeometry>
        </mxCell>
        <mxCell id="QOcSFR8y_e22kkafj4sU-11" value="cross-in-out module" style="shape=cylinder3;whiteSpace=wrap;html=1;boundedLbl=1;backgroundOutline=1;size=15;" parent="1" vertex="1">
          <mxGeometry x="168.75" y="230" width="72.5" height="60" as="geometry" />
        </mxCell>
        <mxCell id="QOcSFR8y_e22kkafj4sU-21" value="4.&amp;nbsp;&lt;br&gt;Bind user&#39;s &lt;br&gt;Bifrostaccount and &lt;br&gt;Filecoin account" style="curved=1;endArrow=classic;html=1;rounded=0;exitX=1;exitY=0;exitDx=0;exitDy=15;exitPerimeter=0;entryX=1;entryY=0.5;entryDx=0;entryDy=0;dashed=1;entryPerimeter=0;" parent="1" source="QOcSFR8y_e22kkafj4sU-11" target="QOcSFR8y_e22kkafj4sU-11" edge="1">
          <mxGeometry x="0.0801" y="-10" width="50" height="50" relative="1" as="geometry">
            <mxPoint x="290" y="260" as="sourcePoint" />
            <mxPoint x="340" y="210" as="targetPoint" />
            <Array as="points">
              <mxPoint x="280" y="220" />
              <mxPoint x="320" y="250" />
              <mxPoint x="290" y="260" />
            </Array>
            <mxPoint as="offset" />
          </mxGeometry>
        </mxCell>
        <mxCell id="womPOICztjm91fhaPhi_-1" value="Relayer" style="shape=cylinder3;whiteSpace=wrap;html=1;boundedLbl=1;backgroundOutline=1;size=15;" parent="1" vertex="1">
          <mxGeometry x="390" y="430" width="60" height="80" as="geometry" />
        </mxCell>
        <mxCell id="womPOICztjm91fhaPhi_-12" value="" style="endArrow=classic;html=1;rounded=0;dashed=1;exitX=0;exitY=0;exitDx=0;exitDy=27.5;exitPerimeter=0;entryX=0.5;entryY=1;entryDx=0;entryDy=0;entryPerimeter=0;" parent="1" source="womPOICztjm91fhaPhi_-1" target="QOcSFR8y_e22kkafj4sU-11" edge="1">
          <mxGeometry width="50" height="50" relative="1" as="geometry">
            <mxPoint x="270" y="550" as="sourcePoint" />
            <mxPoint x="320" y="500" as="targetPoint" />
          </mxGeometry>
        </mxCell>
        <mxCell id="OPFD0uDVI70I2edXx8z7-1" value="3. Relay registering&lt;br&gt;account pair" style="edgeLabel;html=1;align=center;verticalAlign=middle;resizable=0;points=[];" parent="womPOICztjm91fhaPhi_-12" vertex="1" connectable="0">
          <mxGeometry x="-0.1083" y="2" relative="1" as="geometry">
            <mxPoint x="34" y="26" as="offset" />
          </mxGeometry>
        </mxCell>
        <mxCell id="womPOICztjm91fhaPhi_-15" value="Register bifrost-filecoin account pair - FVM" style="text;html=1;strokeColor=none;fillColor=none;align=center;verticalAlign=middle;whiteSpace=wrap;rounded=0;fontStyle=1;fontSize=24;" parent="1" vertex="1">
          <mxGeometry x="120" y="60" width="510" height="30" as="geometry" />
        </mxCell>
        <mxCell id="vZTD1PaGSZ1KzE3osccO-2" value="" style="curved=1;endArrow=classic;html=1;rounded=0;dashed=1;exitX=1;exitY=0.75;exitDx=0;exitDy=0;" parent="1" source="-ivOY6Kmh-wdL6nx-EE1-1" edge="1">
          <mxGeometry width="50" height="50" relative="1" as="geometry">
            <mxPoint x="680" y="450" as="sourcePoint" />
            <mxPoint x="692.5" y="430" as="targetPoint" />
            <Array as="points">
              <mxPoint x="730" y="490" />
              <mxPoint x="802.5" y="460" />
              <mxPoint x="752.5" y="430" />
            </Array>
          </mxGeometry>
        </mxCell>
        <mxCell id="-ivOY6Kmh-wdL6nx-EE1-4" value="2. Verify user signatures" style="edgeLabel;html=1;align=center;verticalAlign=middle;resizable=0;points=[];" vertex="1" connectable="0" parent="vZTD1PaGSZ1KzE3osccO-2">
          <mxGeometry x="-0.4298" y="9" relative="1" as="geometry">
            <mxPoint as="offset" />
          </mxGeometry>
        </mxCell>
        <mxCell id="vZTD1PaGSZ1KzE3osccO-3" value="" style="curved=1;endArrow=classic;html=1;rounded=0;dashed=1;exitX=0;exitY=0.75;exitDx=0;exitDy=0;entryX=1;entryY=0;entryDx=0;entryDy=27.5;entryPerimeter=0;" parent="1" source="-ivOY6Kmh-wdL6nx-EE1-1" target="womPOICztjm91fhaPhi_-1" edge="1">
          <mxGeometry width="50" height="50" relative="1" as="geometry">
            <mxPoint x="400" y="270" as="sourcePoint" />
            <mxPoint x="450" y="220" as="targetPoint" />
            <Array as="points" />
          </mxGeometry>
        </mxCell>
        <mxCell id="-ivOY6Kmh-wdL6nx-EE1-1" value="cross contract" style="swimlane;whiteSpace=wrap;html=1;fillColor=#f8cecc;strokeColor=#b85450;" vertex="1" parent="1">
          <mxGeometry x="580" y="410" width="112.5" height="50" as="geometry" />
        </mxCell>
        <mxCell id="-ivOY6Kmh-wdL6nx-EE1-2" value="" style="endArrow=classic;html=1;rounded=0;exitX=0.75;exitY=0.85;exitDx=0;exitDy=0;exitPerimeter=0;dashed=1;" edge="1" parent="1" source="QOcSFR8y_e22kkafj4sU-7" target="-ivOY6Kmh-wdL6nx-EE1-1">
          <mxGeometry width="50" height="50" relative="1" as="geometry">
            <mxPoint x="690" y="230" as="sourcePoint" />
            <mxPoint x="740" y="180" as="targetPoint" />
          </mxGeometry>
        </mxCell>
        <mxCell id="-ivOY6Kmh-wdL6nx-EE1-3" value="1. User signs binding&lt;br style=&quot;border-color: var(--border-color);&quot;&gt;message for his Bifrost&lt;br style=&quot;border-color: var(--border-color);&quot;&gt;and Filecoin accounts" style="edgeLabel;html=1;align=center;verticalAlign=middle;resizable=0;points=[];" vertex="1" connectable="0" parent="-ivOY6Kmh-wdL6nx-EE1-2">
          <mxGeometry x="-0.424" y="-2" relative="1" as="geometry">
            <mxPoint x="42" y="14" as="offset" />
          </mxGeometry>
        </mxCell>
        <mxCell id="-ivOY6Kmh-wdL6nx-EE1-5" value="&lt;font style=&quot;font-size: 14px;&quot;&gt;&lt;b&gt;Scenario 1:&lt;/b&gt; user register account pair in Filecoin&lt;/font&gt;" style="text;html=1;strokeColor=none;fillColor=none;align=center;verticalAlign=middle;whiteSpace=wrap;rounded=0;" vertex="1" parent="1">
          <mxGeometry x="140" y="130" width="330" height="30" as="geometry" />
        </mxCell>
        <mxCell id="-ivOY6Kmh-wdL6nx-EE1-6" value="&lt;b&gt;Bifrost&lt;/b&gt;" style="ellipse;whiteSpace=wrap;html=1;aspect=fixed;" vertex="1" parent="1">
          <mxGeometry x="110" y="730" width="170" height="170" as="geometry" />
        </mxCell>
        <mxCell id="-ivOY6Kmh-wdL6nx-EE1-7" value="&lt;b&gt;Filecoin&lt;/b&gt;" style="ellipse;whiteSpace=wrap;html=1;aspect=fixed;" vertex="1" parent="1">
          <mxGeometry x="540" y="730" width="170" height="170" as="geometry" />
        </mxCell>
        <mxCell id="-ivOY6Kmh-wdL6nx-EE1-8" value="user" style="shape=hexagon;perimeter=hexagonPerimeter2;whiteSpace=wrap;html=1;fixedSize=1;" vertex="1" parent="1">
          <mxGeometry x="250" y="830" width="60" height="30" as="geometry" />
        </mxCell>
        <mxCell id="-ivOY6Kmh-wdL6nx-EE1-9" value="user" style="shape=hexagon;perimeter=hexagonPerimeter2;whiteSpace=wrap;html=1;fixedSize=1;" vertex="1" parent="1">
          <mxGeometry x="510" y="830" width="60" height="30" as="geometry" />
        </mxCell>
        <mxCell id="-ivOY6Kmh-wdL6nx-EE1-10" value="" style="endArrow=none;dashed=1;html=1;dashPattern=1 3;strokeWidth=2;rounded=0;exitX=1;exitY=0.5;exitDx=0;exitDy=0;entryX=0;entryY=0.5;entryDx=0;entryDy=0;" edge="1" parent="1" source="-ivOY6Kmh-wdL6nx-EE1-8" target="-ivOY6Kmh-wdL6nx-EE1-9">
          <mxGeometry width="50" height="50" relative="1" as="geometry">
            <mxPoint x="350" y="870" as="sourcePoint" />
            <mxPoint x="400" y="820" as="targetPoint" />
          </mxGeometry>
        </mxCell>
        <mxCell id="-ivOY6Kmh-wdL6nx-EE1-11" value="cross-in-out module" style="shape=cylinder3;whiteSpace=wrap;html=1;boundedLbl=1;backgroundOutline=1;size=15;" vertex="1" parent="1">
          <mxGeometry x="158.75" y="710" width="72.5" height="60" as="geometry" />
        </mxCell>
        <mxCell id="-ivOY6Kmh-wdL6nx-EE1-12" value="3.&amp;nbsp;Bind user&#39;s &lt;br&gt;Bifrostaccount and &lt;br&gt;Filecoin account" style="curved=1;endArrow=classic;html=1;rounded=0;exitX=1;exitY=0;exitDx=0;exitDy=15;exitPerimeter=0;entryX=1;entryY=0.5;entryDx=0;entryDy=0;dashed=1;entryPerimeter=0;" edge="1" parent="1" source="-ivOY6Kmh-wdL6nx-EE1-11" target="-ivOY6Kmh-wdL6nx-EE1-11">
          <mxGeometry x="-0.1374" y="10" width="50" height="50" relative="1" as="geometry">
            <mxPoint x="280" y="740" as="sourcePoint" />
            <mxPoint x="330" y="690" as="targetPoint" />
            <Array as="points">
              <mxPoint x="270" y="700" />
              <mxPoint x="310" y="730" />
              <mxPoint x="280" y="740" />
            </Array>
            <mxPoint as="offset" />
          </mxGeometry>
        </mxCell>
        <mxCell id="-ivOY6Kmh-wdL6nx-EE1-13" value="Relayer" style="shape=cylinder3;whiteSpace=wrap;html=1;boundedLbl=1;backgroundOutline=1;size=15;" vertex="1" parent="1">
          <mxGeometry x="380" y="910" width="60" height="80" as="geometry" />
        </mxCell>
        <mxCell id="-ivOY6Kmh-wdL6nx-EE1-19" value="cross contract" style="swimlane;whiteSpace=wrap;html=1;fillColor=#f8cecc;strokeColor=#b85450;" vertex="1" parent="1">
          <mxGeometry x="570" y="890" width="112.5" height="50" as="geometry" />
        </mxCell>
        <mxCell id="-ivOY6Kmh-wdL6nx-EE1-22" value="&lt;font style=&quot;font-size: 14px;&quot;&gt;&lt;b&gt;Scenario 2:&lt;/b&gt; user register account pair in Bifrost&lt;/font&gt;" style="text;html=1;strokeColor=none;fillColor=none;align=center;verticalAlign=middle;whiteSpace=wrap;rounded=0;" vertex="1" parent="1">
          <mxGeometry x="130" y="610" width="330" height="30" as="geometry" />
        </mxCell>
        <mxCell id="-ivOY6Kmh-wdL6nx-EE1-23" value="" style="endArrow=classic;html=1;rounded=0;entryX=0.855;entryY=1;entryDx=0;entryDy=-4.35;entryPerimeter=0;exitX=0;exitY=0.25;exitDx=0;exitDy=0;dashed=1;" edge="1" parent="1" source="-ivOY6Kmh-wdL6nx-EE1-8" target="-ivOY6Kmh-wdL6nx-EE1-11">
          <mxGeometry width="50" height="50" relative="1" as="geometry">
            <mxPoint x="181.25" y="860" as="sourcePoint" />
            <mxPoint x="231.25" y="810" as="targetPoint" />
          </mxGeometry>
        </mxCell>
        <mxCell id="-ivOY6Kmh-wdL6nx-EE1-24" value="1. User signs binding&lt;br style=&quot;border-color: var(--border-color);&quot;&gt;message for his Bifrost&lt;br style=&quot;border-color: var(--border-color);&quot;&gt;and Filecoin accounts" style="edgeLabel;html=1;align=center;verticalAlign=middle;resizable=0;points=[];" vertex="1" connectable="0" parent="-ivOY6Kmh-wdL6nx-EE1-23">
          <mxGeometry x="0.1282" y="-2" relative="1" as="geometry">
            <mxPoint x="41" as="offset" />
          </mxGeometry>
        </mxCell>
        <mxCell id="-ivOY6Kmh-wdL6nx-EE1-25" value="" style="curved=1;endArrow=classic;html=1;rounded=0;exitX=0.145;exitY=0;exitDx=0;exitDy=4.35;exitPerimeter=0;dashed=1;entryX=0.776;entryY=0.025;entryDx=0;entryDy=0;entryPerimeter=0;" edge="1" parent="1" source="-ivOY6Kmh-wdL6nx-EE1-11" target="-ivOY6Kmh-wdL6nx-EE1-11">
          <mxGeometry width="50" height="50" relative="1" as="geometry">
            <mxPoint x="100" y="730" as="sourcePoint" />
            <mxPoint x="150" y="680" as="targetPoint" />
            <Array as="points">
              <mxPoint x="195" y="660" />
            </Array>
          </mxGeometry>
        </mxCell>
        <mxCell id="-ivOY6Kmh-wdL6nx-EE1-26" value="2. Verify user&lt;br&gt;&amp;nbsp;signatures" style="edgeLabel;html=1;align=center;verticalAlign=middle;resizable=0;points=[];" vertex="1" connectable="0" parent="-ivOY6Kmh-wdL6nx-EE1-25">
          <mxGeometry x="-0.0052" relative="1" as="geometry">
            <mxPoint y="7" as="offset" />
          </mxGeometry>
        </mxCell>
      </root>
    </mxGraphModel>
  </diagram>
</mxfile>
